<svg width="320" height="120" viewBox="0 0 320 120" fill="none" xmlns="http://www.w3.org/2000/svg">
  <defs>
    <linearGradient id="connexGradient" x1="18" y1="12" x2="90" y2="88" gradientUnits="userSpaceOnUse">
      <stop stop-color="#6F86FF"/>
      <stop offset="1" stop-color="#5C5FF5"/>
    </linearGradient>
  </defs>
  <path d="M48 12H72L90 24V48L72 60H48L30 48V24L48 12Z" fill="url(#connexGradient)"/>
  <circle cx="47" cy="39" r="8" fill="white" fill-opacity="0.96"/>
  <circle cx="70" cy="33" r="8" fill="white" fill-opacity="0.96"/>
  <circle cx="49" cy="63" r="8" fill="white" fill-opacity="0.96"/>
  <path d="M58.5 31C64.1 31 68.5 35.4 68.5 41C68.5 44.9 66.3 48.3 62.8 49.9C67.6 52 70.5 56.2 70.5 60.8C70.5 67.1 65.3 72.2 59 72.2C52.7 72.2 47.5 67.1 47.5 60.8C47.5 56.3 50.3 52.2 55 50.1C51.7 48.5 49.5 45 49.5 41C49.5 35.4 53.9 31 58.5 31Z" fill="white" fill-opacity="0.96"/>
  <text x="112" y="49" fill="#2E4152" font-family="Arial, Helvetica, sans-serif" font-size="30" font-weight="700">Connex Sante</text>
  <text x="112" y="78" fill="#7B8794" font-family="Arial, Helvetica, sans-serif" font-size="12" letter-spacing="0.12em">TELEMEDECINE COLLABORATIVE</text>
</svg>
