<?xml version="1.0" encoding="UTF-8"?>
<svg xmlns="http://www.w3.org/2000/svg" id="Calque_1" data-name="Calque 1" viewBox="0 0 440.24 131.94">
  <defs>
    <style>.cls-1,.cls-3{fill:#84c4a3;}.cls-2{fill:#335175;}.cls-3{stroke:#84c4a3;stroke-miterlimit:10;stroke-width:0.4px;}</style>
  </defs>
  <path class="cls-1" d="M219.83,53.22c-9.39,0-16.2,7.4-16.2,17.6s6.81,17.59,16.2,17.59,16.24-7.4,16.24-17.59S229.24,53.22,219.83,53.22Zm7.37,17.6c0,5.68-3,9.51-7.37,9.51s-7.27-3.83-7.27-9.51,2.92-9.51,7.27-9.51S227.2,65.13,227.2,70.82Z" transform="translate(-6.42 -6.62)"></path>
  <polygon class="cls-2" points="260.23 71.34 251.94 48.2 244.91 48.2 256.9 80.21 263.36 80.21 275.4 48.2 268.52 48.2 260.23 71.34"></polygon>
  <polygon class="cls-2" points="294.85 80.21 316.58 80.21 316.58 74.31 301.41 74.31 301.41 66.7 315.18 66.7 315.18 61.02 301.41 61.02 301.41 54.03 316.58 54.03 316.58 48.2 294.85 48.2 294.85 80.21"></polygon>
  <polygon class="cls-2" points="335.66 54.03 345.93 54.03 345.93 80.21 352.66 80.21 352.66 54.03 362.98 54.03 362.98 48.2 335.66 48.2 335.66 54.03"></polygon>
  <rect class="cls-2" x="383" y="48.2" width="6.67" height="32.01"></rect>
  <path class="cls-2" d="M434.41,54.81h-6.63l-12.25,32h6.68L425,79.11h12l2.87,7.71h6.78Zm-7.3,18.67L431,62.84l3.91,10.64Z" transform="translate(-6.42 -6.62)"></path>
  <path class="cls-1" d="M183,82.52c.28-.35.53-.71.78-1.08l.18-.27c.15-.23.29-.47.43-.71s.36-.64.53-1l.07-.14a19.25,19.25,0,0,0,1.9-8.5c0-10.22-6.84-17.63-16.3-17.63-.59,0-1.17,0-1.73.08-8.48.85-14.46,8-14.46,17.52h0v0c0,10.22,6.82,17.63,16.22,17.63a15.56,15.56,0,0,0,6.06-1.2l5.13,6.3,6.14-5Zm-12.41-2.19a6.39,6.39,0,0,1-4.15-1.47l-.33-.32-.39-.41A9.06,9.06,0,0,1,164.1,75a13.91,13.91,0,0,1-.54-4c0-5.79,2.86-9.54,7.29-9.54a7.09,7.09,0,0,1,2.23.36,5.7,5.7,0,0,1,.91.4c2.47,1.45,4,4.52,4,8.59C178,76.5,175,80.33,170.62,80.33Z" transform="translate(-6.42 -6.62)"></path>
  <path class="cls-2" d="M159.28,112.84v3.79H157.7v-9.34h3.61c1.93,0,3.17,1,3.17,2.8a2.53,2.53,0,0,1-2.38,2.69l2.7,3.85H163l-2.6-3.79Zm0-1.32h2c1,0,1.64-.56,1.64-1.43s-.6-1.43-1.64-1.43h-2Z" transform="translate(-6.42 -6.62)"></path>
  <path class="cls-2" d="M176.49,107.29v1.4h-4.55v2.46h4.13v1.39h-4.13v2.67h4.55v1.42h-6.1v-9.34Zm-3.85-.86,1.17-1.78h1.77l-1.45,1.78Z" transform="translate(-6.42 -6.62)"></path>
  <path class="cls-2" d="M183.34,114a2,2,0,0,0,2.12,1.4c1.09,0,1.81-.51,1.81-1.38,0-.65-.38-1-1.36-1.26l-1.58-.38c-1.29-.31-2.32-1-2.32-2.51a2.88,2.88,0,0,1,3.17-2.77,3.27,3.27,0,0,1,3.55,2.59h-1.58a1.88,1.88,0,0,0-2-1.25c-1,0-1.69.52-1.69,1.29s.4,1,1.23,1.22l1.63.38c1.46.33,2.42,1.18,2.42,2.58,0,1.75-1.4,2.83-3.33,2.83a3.45,3.45,0,0,1-3.73-2.74Z" transform="translate(-6.42 -6.62)"></path>
  <path class="cls-2" d="M200.7,107.29v1.4h-4.54v2.46h4.12v1.39h-4.12v2.67h4.54v1.42h-6.09v-9.34Z" transform="translate(-6.42 -6.62)"></path>
  <path class="cls-2" d="M211.06,107.29l3.58,9.34H213l-1-2.59H208.5l-1,2.59H206l3.58-9.34ZM209,112.68h2.56l-1.28-3.46Z" transform="translate(-6.42 -6.62)"></path>
  <path class="cls-2" d="M219.78,112.9v-5.61h1.58v5.45c0,1.79.76,2.63,2.16,2.63s2.16-.84,2.16-2.63v-5.45h1.58v5.63c0,2.55-1.51,3.86-3.74,3.86S219.78,115.47,219.78,112.9Z" transform="translate(-6.42 -6.62)"></path>
  <path class="cls-2" d="M243.84,116.63l-3.53-9.34H242l2.65,7.29,2.64-7.29h1.61l-3.52,9.34Z" transform="translate(-6.42 -6.62)"></path>
  <path class="cls-2" d="M260.56,107.29v1.4H256v2.46h4.12v1.39H256v2.67h4.55v1.42h-6.1v-9.34Zm-3.85-.86,1.17-1.78h1.77l-1.45,1.78Z" transform="translate(-6.42 -6.62)"></path>
  <path class="cls-2" d="M266,107.29h7.79v1.4h-3.1v7.94h-1.58v-7.94H266Z" transform="translate(-6.42 -6.62)"></path>
  <path class="cls-2" d="M285.58,107.29v1.4H281v2.46h4.12v1.39H281v2.67h4.55v1.42h-6.1v-9.34Zm-3.85-.86,1.17-1.78h1.77l-1.45,1.78Z" transform="translate(-6.42 -6.62)"></path>
  <path class="cls-2" d="M293.13,112.84v3.79h-1.58v-9.34h3.6c1.94,0,3.18,1,3.18,2.8a2.53,2.53,0,0,1-2.38,2.69l2.7,3.85h-1.79l-2.6-3.79Zm0-1.32h2c1.05,0,1.65-.56,1.65-1.43s-.6-1.43-1.65-1.43h-2Z" transform="translate(-6.42 -6.62)"></path>
  <path class="cls-2" d="M305.82,116.63h-1.58v-9.34h1.58Z" transform="translate(-6.42 -6.62)"></path>
  <path class="cls-2" d="M319.66,116.63h-1.22l-4.77-6.8v6.8h-1.52v-9.34h1.49l4.5,6.48v-6.48h1.52Z" transform="translate(-6.42 -6.62)"></path>
  <path class="cls-2" d="M330.36,107.29l3.59,9.34h-1.62l-.95-2.59H327.8l-.95,2.59h-1.6l3.59-9.34Zm-2.06,5.39h2.56l-1.28-3.46Z" transform="translate(-6.42 -6.62)"></path>
  <path class="cls-2" d="M341.12,116.63h-1.58v-9.34h1.58Z" transform="translate(-6.42 -6.62)"></path>
  <path class="cls-2" d="M349,112.84v3.79h-1.58v-9.34H351c1.93,0,3.18,1,3.18,2.8a2.54,2.54,0,0,1-2.39,2.69l2.71,3.85h-1.79l-2.6-3.79Zm0-1.32h2c1.05,0,1.65-.56,1.65-1.43s-.6-1.43-1.65-1.43h-2Z" transform="translate(-6.42 -6.62)"></path>
  <path class="cls-2" d="M366.23,107.29v1.4h-4.55v2.46h4.12v1.39h-4.12v2.67h4.55v1.42h-6.1v-9.34Z" transform="translate(-6.42 -6.62)"></path>
  <path class="cls-1" d="M71.22,21.87A51.48,51.48,0,1,0,122.7,73.35,51.47,51.47,0,0,0,71.22,21.87Zm8.28,81.49a8.16,8.16,0,0,1-8.13,8.13H70a8.16,8.16,0,0,1-8.13-8.13v-11A8.15,8.15,0,0,1,70,84.22h1.4a8.15,8.15,0,0,1,8.13,8.12ZM70.67,82.18a8.83,8.83,0,1,1,8.83-8.83A8.84,8.84,0,0,1,70.67,82.18Zm21,29.31a8.83,8.83,0,1,1,8.83-8.83A8.84,8.84,0,0,1,91.65,111.49Z" transform="translate(-6.42 -6.62)"></path>
  <path class="cls-3" d="M7.35,54.52l1.24-3.4c1.08-3,3.75-4.18,6.83-3.06s4.34,3.75,3.26,6.73l-1.24,3.4Zm9.78-.22c.77-2.12-.18-3.75-2.33-4.54s-4-.15-4.72,2l-.59,1.63,7,2.56Z" transform="translate(-6.42 -6.62)"></path>
  <path class="cls-3" d="M23.56,44.84c-1.49,2.49-4.56,3-7.3,1.39s-3.7-4.6-2.21-7.09,4.55-3.07,7.31-1.41S25.05,42.35,23.56,44.84ZM15.44,40c-1,1.62-.19,3.52,1.76,4.69s4,1,5-.66.2-3.53-1.75-4.7S16.41,38.35,15.44,40Z" transform="translate(-6.42 -6.62)"></path>
  <path class="cls-3" d="M32.63,32.94,31.69,34l-9.48-1.13L28,38.07l-1.17,1.3-8-7.16L20,30.93l9,1.12-5.54-5,1.17-1.3Z" transform="translate(-6.42 -6.62)"></path>
  <path class="cls-3" d="M41,26.36l-1.11.84-9.1-2.9,4.73,6.23-1.39,1L27.61,23,29,22l8.63,2.8-4.51-5.93,1.39-1.06Z" transform="translate(-6.42 -6.62)"></path>
  <path class="cls-3" d="M44.09,12.56,44.82,14l-4.64,2.4,1.3,2.52,4.21-2.18.73,1.42-4.21,2.17,1.41,2.74,4.65-2.4L49,22.1l-6.23,3.22-4.93-9.54Z" transform="translate(-6.42 -6.62)"></path>
  <path class="cls-3" d="M51,16.75l1.34,4.14-1.73.56-3.3-10.21L51.23,10c2.11-.68,3.82-.06,4.46,1.94A2.91,2.91,0,0,1,54,15.69l4.32,3.25-2,.64-4.18-3.22Zm-.47-1.44,2.18-.71a1.66,1.66,0,1,0-1-3.12l-2.18.7Z" transform="translate(-6.42 -6.62)"></path>
  <path class="cls-3" d="M62.47,7.39l1.81-.15L65,16.32l5.14-.43.13,1.62-7,.58Z" transform="translate(-6.42 -6.62)"></path>
  <path class="cls-3" d="M79.67,7.32l-.12,1.61-5.21-.37-.2,2.82,4.73.34-.12,1.58L74,13,73.81,16l5.22.37L78.91,18l-7-.49.75-10.71Z" transform="translate(-6.42 -6.62)"></path>
  <path class="cls-3" d="M86.19,16.52A2.31,2.31,0,0,0,88,18.77c1.21.37,2.17,0,2.46-.91.22-.72-.07-1.27-1.07-1.84l-1.61-.95c-1.32-.77-2.22-1.89-1.71-3.54s2.35-2.61,4.42-2c2.23.68,3.19,2.21,3,4l-1.74-.53a2.14,2.14,0,0,0-1.72-2c-1.1-.34-2,0-2.29.85-.21.69.09,1.25.94,1.75l1.67,1c1.49.86,2.26,2.12,1.79,3.65-.59,1.93-2.49,2.65-4.62,2S84.2,18,84.41,16Z" transform="translate(-6.42 -6.62)"></path>
  <path class="cls-3" d="M96.51,23.86c-2.58-1.32-3.34-4.33-1.88-7.18s4.34-4,6.93-2.68,3.36,4.33,1.89,7.19S99.09,25.19,96.51,23.86Zm4.31-8.41c-1.68-.86-3.52,0-4.56,2.07s-.69,4,1,4.9,3.53,0,4.57-2.06S102.5,16.31,100.82,15.45Z" transform="translate(-6.42 -6.62)"></path>
  <path class="cls-3" d="M104.68,23.33l4-5.09,1.43,1.11-3.84,4.94c-1.27,1.63-1.17,2.92.1,3.91s2.55.76,3.82-.86L114,22.4l1.43,1.12-4,5.1c-1.8,2.32-4.09,2.44-6.11.86S102.86,25.66,104.68,23.33Z" transform="translate(-6.42 -6.62)"></path>
  <path class="cls-3" d="M114.63,31.74l-3.23,2.92-1.22-1.35,8-7.19,2.77,3.07c1.49,1.65,1.62,3.46.06,4.87a2.91,2.91,0,0,1-4.13,0l-1.2,5.27-1.38-1.53,1.22-5.14Zm1.13-1,1.53,1.7a1.66,1.66,0,1,0,2.44-2.2l-1.53-1.7Z" transform="translate(-6.42 -6.62)"></path>
  <path class="cls-3" d="M117.38,42.06l-1-1.48,8.77-6.18,1,1.48Z" transform="translate(-6.42 -6.62)"></path>
  <path class="cls-3" d="M123.38,43.39l-3.84,2.06-.86-1.6,9.46-5.08,2,3.65c1.05,2,.74,3.75-1.11,4.74a2.91,2.91,0,0,1-4-.95L122.54,51l-1-1.82L124,44.53Zm1.34-.72,1.08,2a1.66,1.66,0,1,0,2.9-1.55l-1.08-2Z" transform="translate(-6.42 -6.62)"></path>
  <path class="cls-3" d="M135.38,55.43l-1.52.52-1.69-5-2.68.92L131,56.4l-1.51.51L128,52.43l-2.92,1,1.69,4.95-1.54.52L123,52.26l10.16-3.47Z" transform="translate(-6.42 -6.62)"></path>
  <path class="cls-2" d="M14.78,83.4l-7.2,4.3-.16-1,2.17-1.28-.53-3.18-2.47-.49-.17-1,8.21,1.72Zm-4.8-1,.42,2.51,3.07-1.8Z" transform="translate(-6.42 -6.62)"></path>
  <path class="cls-2" d="M11,88.38,15.46,87l.29,1-4.4,1.32c-1.6.48-2.11,1.48-1.74,2.68s1.33,1.75,2.93,1.27l4.4-1.33.29,1-4.52,1.36A3.06,3.06,0,1,1,11,88.38Z" transform="translate(-6.42 -6.62)"></path>
  <path class="cls-2" d="M15.57,98.7,13,102.86l-.46-1,2-3.31-3.79-.72-.45-1,4.74.91,2.43-4,.47,1-1.93,3.14,3.63.69.45,1Z" transform="translate(-6.42 -6.62)"></path>
  <path class="cls-2" d="M17.43,106.41a1.92,1.92,0,0,0,0,2.37c.55.85,1.36,1.17,2.08.7.51-.34.65-.84.35-1.72l-.46-1.37a2.05,2.05,0,0,1,.65-2.67,2.31,2.31,0,0,1,3.25.93,2.65,2.65,0,0,1-.14,3.52l-.56-.84a1.76,1.76,0,0,0,0-2.21,1.39,1.39,0,0,0-2-.64c-.55.36-.58.9-.31,1.69l.45,1.31a2.15,2.15,0,0,1-.69,2.78c-1.17.77-2.51.28-3.37-1a2.8,2.8,0,0,1,.15-3.69Z" transform="translate(-6.42 -6.62)"></path>
  <path class="cls-2" d="M25.12,107.59l4.13,5-.69.57L26.82,111l-5.31,4.43-.64-.77,5.31-4.43-1.74-2.09Z" transform="translate(-6.42 -6.62)"></path>
  <path class="cls-2" d="M27.67,117.28l-2.27,2.4-.73-.69L30,113.31l2.11,2c1.13,1.08,1.31,2.33.3,3.4a2.06,2.06,0,0,1-2.95.24l-.63,4-.83-.78.65-3.94Zm.58-.62,1.36,1.28a1.4,1.4,0,1,0,1.9-2l-1.35-1.28Z" transform="translate(-6.42 -6.62)"></path>
  <path class="cls-2" d="M32.11,121.61l2.78-3.79.8.58L33,122.1c-1,1.35-.79,2.45.22,3.19s2.12.59,3.11-.75l2.71-3.7.81.59L37,125.24a3.06,3.06,0,1,1-4.92-3.63Z" transform="translate(-6.42 -6.62)"></path>
  <path class="cls-2" d="M43.81,123.6a2.92,2.92,0,0,1,1.49,3.58l-.87-.48a2,2,0,0,0-1.06-2.31c-1.3-.72-2.79-.11-3.69,1.52s-.64,3.21.67,3.93a2,2,0,0,0,2.53-.33l.86.48a2.92,2.92,0,0,1-3.83.64c-1.72-.95-2.29-3.08-1.11-5.21S42.08,122.64,43.81,123.6Z" transform="translate(-6.42 -6.62)"></path>
  <path class="cls-2" d="M46.78,125.35l6,2.42-.33.82-2.52-1L47.3,134l-.93-.38,2.6-6.41-2.53-1Z" transform="translate(-6.42 -6.62)"></path>
  <path class="cls-2" d="M52.46,132.6l1.19-4.54,1,.25-1.17,4.44c-.42,1.61.16,2.56,1.38,2.88s2.18-.23,2.61-1.84l1.16-4.44,1,.26-1.19,4.56a3.06,3.06,0,1,1-5.91-1.57Z" transform="translate(-6.42 -6.62)"></path>
  <path class="cls-2" d="M61.46,134.46,61,137.74l-1-.13,1-7.74,2.87.38c1.55.2,2.43,1.12,2.24,2.58a2.07,2.07,0,0,1-2.26,1.92l1.84,3.62-1.13-.15-1.79-3.57Zm.11-.84,1.85.24c1,.14,1.65-.3,1.76-1.16s-.37-1.45-1.39-1.58l-1.85-.25Z" transform="translate(-6.42 -6.62)"></path>
  <path class="cls-2" d="M72.81,130.75l0,.89-4-.07,0,2.47,3.61.06,0,.89-3.61-.06,0,2.65,4,.07v.91l-5-.09.14-7.81Z" transform="translate(-6.42 -6.62)"></path>
  <path class="cls-2" d="M75.1,136.4a1.92,1.92,0,0,0,2.09,1.11c1-.09,1.68-.64,1.6-1.51-.05-.6-.43-1-1.35-1.11L76,134.65c-1.1-.19-1.93-.66-2-1.84a2.31,2.31,0,0,1,2.36-2.43,2.66,2.66,0,0,1,3,1.79l-1,.09a1.81,1.81,0,0,0-2-1c-.93.08-1.57.62-1.5,1.42s.52.94,1.35,1.08l1.36.22c1.27.21,2,.82,2.13,1.92.13,1.4-.94,2.35-2.48,2.49a2.79,2.79,0,0,1-3.18-1.87Z" transform="translate(-6.42 -6.62)"></path>
  <path class="cls-2" d="M87.44,136.49l-4.91-6.78,1-.27,4,5.65.72-6.9,1-.26-.92,8.32Z" transform="translate(-6.42 -6.62)"></path>
  <path class="cls-2" d="M94.8,125.74l.33.82L91.43,128l.91,2.29L95.69,129l.33.83-3.36,1.33,1,2.47,3.7-1.46.34.84-4.63,1.83-2.87-7.26Zm-3,.46.4-1.76,1-.41-.52,1.81Z" transform="translate(-6.42 -6.62)"></path>
  <path class="cls-2" d="M95.58,125.41l5.67-3.06.43.79-2.4,1.29,3.28,6.09-.88.48-3.29-6.1L96,126.19Z" transform="translate(-6.42 -6.62)"></path>
  <path class="cls-2" d="M106.23,118.89l.51.73-3.26,2.28,1.41,2,3-2.07.51.73-3,2.07,1.52,2.18,3.26-2.28.52.74-4.07,2.85-4.47-6.4ZM103.39,120l0-1.8.91-.63-.1,1.88Z" transform="translate(-6.42 -6.62)"></path>
  <path class="cls-2" d="M111.05,120.73l2.19,2.47-.75.67L107.31,118l2.17-1.93c1.17-1,2.44-1.1,3.42,0a2.07,2.07,0,0,1,0,3l3.94,1-.85.76-3.87-1Zm-.56-.64,1.39-1.24a1.4,1.4,0,1,0-1.84-2.07l-1.4,1.24Z" transform="translate(-6.42 -6.62)"></path>
  <path class="cls-2" d="M118.71,118l-.69.73-5.65-5.4.7-.72Z" transform="translate(-6.42 -6.62)"></path>
  <path class="cls-2" d="M124.17,111.49l-.46.58-7.58-.44,4.86,3.86-.6.75-6.11-4.85.59-.75,7.24.44-4.65-3.7.59-.75Z" transform="translate(-6.42 -6.62)"></path>
  <path class="cls-2" d="M120.69,102.44l8.26,1.41-.53.88-2.48-.44L124.29,107l1.55,2-.52.87-5.12-6.64Zm3,3.87,1.31-2.18-3.51-.63Z" transform="translate(-6.42 -6.62)"></path>
  <path class="cls-2" d="M130.09,101.36l-.43.9-7-3.41.44-.9Z" transform="translate(-6.42 -6.62)"></path>
  <path class="cls-2" d="M128.41,97.05l3.09,1.19-.36.94-7.28-2.81,1-2.7c.56-1.46,1.65-2.1,3-1.57a2.07,2.07,0,0,1,1.34,2.64l3.94-.95-.41,1.07-3.89.9Zm-.79-.3.67-1.75a1.35,1.35,0,0,0-.72-2c-.81-.31-1.49,0-1.86,1L125,95.75Z" transform="translate(-6.42 -6.62)"></path>
  <path class="cls-2" d="M127.44,85.15l.86.22-1,3.86,2.39.61.9-3.5.86.22-.9,3.5,2.58.66,1-3.85.88.22-1.24,4.81L126.21,90Z" transform="translate(-6.42 -6.62)"></path>
  <path class="cls-2" d="M133.45,84.24A1.94,1.94,0,0,0,135,82.46c.14-1-.25-1.78-1.11-1.91-.6-.08-1,.2-1.39,1.07L132,83c-.42,1-1.08,1.74-2.25,1.57a2.31,2.31,0,0,1-1.83-2.85,2.67,2.67,0,0,1,2.44-2.55l-.14,1a1.77,1.77,0,0,0-1.45,1.66c-.13.92.25,1.67,1,1.78s1-.29,1.36-1.06l.53-1.28c.49-1.19,1.25-1.78,2.35-1.63,1.4.2,2.08,1.45,1.86,3a2.81,2.81,0,0,1-2.55,2.67Z" transform="translate(-6.42 -6.62)"></path>
  <circle class="cls-2" cx="4.48" cy="61.44" r="3.51"></circle>
  <circle class="cls-2" cx="125.48" cy="60.47" r="3.51"></circle>
</svg>
