<?xml version="1.0" encoding="iso-8859-1"?>
<!-- Generator: Adobe Illustrator 26.1.0, SVG Export Plug-In . SVG Version: 6.00 Build 0)  -->
<svg version="1.1" id="Calque_1" xmlns="http://www.w3.org/2000/svg" xmlns:xlink="http://www.w3.org/1999/xlink" x="0px" y="0px"
	 width="841.89px" height="211.667px" viewBox="0 0 841.89 211.667" enable-background="new 0 0 841.89 211.667"
	 xml:space="preserve">
<g>
	<g>
		<g>
			<path fill="#63AE24" d="M142.933,171.533h-0.005C64.803,171.529,8.215,118.057,3.576,81.247
				c-4.912-39,35.847-65.686,75.661-77.668c0.378-0.146,1.635-0.592,2.965-0.592c1.125,0,2.067,0.311,2.792,0.922
				c2.176,1.832,1.584,4.316,0.656,5.538c-6.501,7.631-10.885,17.836-13.082,30.408c-1.513,8.663-1.452,16.579,0.181,23.526
				c1.636,6.895,4.379,13.174,8.152,18.658c3.733,5.426,8.239,10.224,13.391,14.262c5.057,3.983,10.415,7.46,15.929,10.335
				c5.401,2.84,10.798,5.299,16.046,7.318c5.169,1.99,9.711,3.73,13.63,5.199c5.838,2.203,11.492,4.483,16.817,6.78
				c5.165,2.215,9.683,4.648,13.419,7.226c3.542,2.455,6.244,5.27,8.042,8.371c1.73,3.028,2.253,6.306,1.605,10.028
				c-0.513,2.915-1.806,5.804-3.848,8.589c-2.041,2.786-4.843,5.137-8.326,6.989c-3.457,1.852-7.639,3.182-12.423,3.951
				C151.009,171.39,146.942,171.533,142.933,171.533z"/>
		</g>
	</g>
	<g>
		<path d="M346.484,115.129l12.913-19.039c6.233,4.31,12.666,8.017,19.294,11.135c6.626,3.115,13.569,4.674,20.821,4.674
			c3.853,0,7.251-0.48,10.201-1.445c2.942-0.963,5.438-2.211,7.476-3.738c2.042-1.531,3.57-3.286,4.59-5.27
			c1.02-1.984,1.531-3.936,1.531-5.866c0-2.49-0.766-4.616-2.297-6.371c-1.528-1.755-3.569-3.201-6.119-4.335
			c-2.549-1.132-5.555-2.095-9.007-2.891c-3.457-0.791-7.055-1.531-10.793-2.208c-2.495-0.453-5.384-0.991-8.67-1.617
			c-3.289-0.62-6.688-1.47-10.199-2.546c-3.513-1.078-6.968-2.495-10.369-4.251c-3.399-1.758-6.461-3.966-9.178-6.628
			c-2.72-2.662-4.901-5.835-6.544-9.518c-1.643-3.682-2.465-8.017-2.465-13.004c0-7.251,1.472-13.284,4.422-18.101
			c2.942-4.817,6.713-8.613,11.303-11.389c4.588-2.774,9.685-4.73,15.296-5.865c5.608-1.131,11.02-1.699,16.233-1.699
			c5.21,0,9.856,0.339,13.936,1.021c4.08,0.678,7.874,1.673,11.388,2.972c3.51,1.307,6.939,2.95,10.282,4.931
			c3.342,1.984,6.942,4.334,10.795,7.054l-13.258,18.695c-5.893-4.077-11.56-7.193-16.998-9.348
			c-5.44-2.152-11.163-3.229-17.167-3.229c-2.042,0-4.366,0.253-6.968,0.763c-2.608,0.51-5.075,1.334-7.395,2.466
			c-2.324,1.134-4.251,2.58-5.779,4.335c-1.531,1.759-2.294,3.882-2.294,6.372c0,2.493,0.903,4.592,2.72,6.29
			c1.809,1.702,4.133,3.118,6.966,4.25c2.835,1.134,5.95,2.097,9.351,2.889c3.399,0.796,6.683,1.587,9.857,2.381
			c2.38,0.566,5.185,1.134,8.414,1.697c3.23,0.571,6.57,1.36,10.028,2.38c3.455,1.021,6.884,2.381,10.286,4.083
			c3.398,1.697,6.43,3.881,9.091,6.542c2.661,2.662,4.815,5.948,6.46,9.859c1.641,3.909,2.465,8.641,2.465,14.191
			c0,6.458-1.133,12.067-3.398,16.826c-2.271,4.76-5.498,8.699-9.69,11.813c-4.192,3.118-9.178,5.47-14.957,7.054
			c-5.779,1.589-12.181,2.38-19.208,2.38c-6.458,0-12.153-0.481-17.08-1.444c-4.932-0.961-9.433-2.266-13.513-3.908
			c-4.08-1.641-7.933-3.596-11.558-5.864C354.073,120.342,350.332,117.848,346.484,115.129z"/>
		<path d="M450.337,131.444l63.569-124.25h2.378l63.574,124.25h-25.84l-9.689-19.545h-58.639l-9.52,19.545H450.337z M497.249,91.164
			h35.523l-17.675-37.566L497.249,91.164z"/>
		<path d="M707.333,63.457c-0.115,2.378-0.172,4.59-0.172,6.629c-0.114,1.815-0.168,3.6-0.168,5.354c0,1.76-0.062,3.09-0.171,3.992
			c-0.679,7.822-2.804,15.074-6.371,21.758c-3.572,6.689-8.16,12.437-13.769,17.253c-5.61,4.817-12.071,8.585-19.379,11.303
			c-7.31,2.719-14.987,4.078-23.029,4.078c-8.842,0-17.17-1.698-24.985-5.099c-7.82-3.399-14.663-8.017-20.529-13.854
			c-5.868-5.834-10.515-12.663-13.939-20.479c-3.427-7.82-5.139-16.147-5.139-24.986c0-8.841,1.712-17.194,5.139-25.072
			c3.425-7.874,8.071-14.731,13.939-20.568c5.866-5.834,12.709-10.454,20.529-13.851c7.815-3.4,16.143-5.102,24.985-5.102
			c11.216,0,21.499,2.608,30.848,7.82c9.352,5.213,16.911,12.181,22.69,20.907l-20.396,12.406
			c-3.626-5.322-8.356-9.798-14.189-13.426c-5.84-3.625-12.155-5.44-18.952-5.44c-5.67,0-10.965,1.164-15.894,3.485
			c-4.928,2.322-9.239,5.412-12.916,9.262c-3.688,3.853-6.606,8.359-8.757,13.516c-2.151,5.155-3.228,10.51-3.228,16.062
			c0,5.666,1.076,11.045,3.228,16.145c2.15,5.102,5.069,9.58,8.757,13.429c3.677,3.854,7.988,6.944,12.916,9.263
			c4.929,2.326,10.224,3.485,15.894,3.485c4.302,0,8.437-0.649,12.405-1.955c3.968-1.303,7.593-3.144,10.88-5.523
			c3.283-2.379,6.146-5.213,8.583-8.5c2.437-3.285,4.221-6.909,5.355-10.877h-45.895V63.457H707.333z"/>
		<path d="M709.374,131.444l63.568-124.25h2.378l63.569,124.25h-25.834l-9.688-19.545h-58.64l-9.519,19.545H709.374z
			 M756.284,91.164h35.524l-17.675-37.566L756.284,91.164z"/>
	</g>
	<g>
		<path d="M493.172,206.609l-33.18-30.007v30.007h-9.655v-50.421h1.033l33.178,30.482v-30.482h9.655v50.421H493.172z"/>
		<path d="M526.898,207.505c-3.268,0-6.233-0.507-8.897-1.518c-2.669-1.013-4.944-2.437-6.828-4.277
			c-1.888-1.841-3.348-4.071-4.383-6.691c-1.034-2.621-1.552-5.54-1.552-8.762v-30.069h9.657v30.022
			c0,2.525,0.416,4.613,1.243,6.265c0.826,1.656,1.847,2.962,3.069,3.929c1.215,0.963,2.528,1.63,3.93,1.995
			c1.403,0.367,2.656,0.553,3.761,0.553c1.103,0,2.354-0.186,3.759-0.553c1.4-0.365,2.715-1.032,3.932-1.995
			c1.214-0.967,2.24-2.272,3.066-3.929c0.829-1.651,1.245-3.739,1.245-6.265v-30.022h9.655v30.069c0,3.222-0.505,6.141-1.516,8.762
			c-1.013,2.619-2.462,4.85-4.345,6.691c-1.889,1.841-4.165,3.265-6.831,4.277C533.195,206.998,530.21,207.505,526.898,207.505z"/>
		<path d="M593.044,164.672h-14.416v41.938h-9.652v-41.938h-14.487v-8.556h38.556V164.672z"/>
		<path d="M609.323,206.609h-9.658v-50.493h22.941c2.579,0,4.938,0.425,7.083,1.277c2.141,0.852,3.97,2.048,5.491,3.586
			c1.518,1.541,2.704,3.379,3.557,5.519c0.852,2.137,1.28,4.47,1.28,7c0,3.817-0.956,7.149-2.867,10.001
			c-1.914,2.85-4.458,4.898-7.637,6.14c4.243,5.608,8.435,11.268,12.573,16.97h-11.52c-2.016-2.623-3.985-5.267-5.912-7.936
			c-1.924-2.665-3.851-5.38-5.776-8.139h-9.556V206.609z M609.323,181.982h13.271c0.87,0,1.773-0.175,2.715-0.517
			c0.936-0.346,1.775-0.874,2.508-1.588c0.729-0.713,1.34-1.595,1.822-2.653c0.479-1.061,0.722-2.298,0.722-3.726
			c0-0.735-0.095-1.608-0.275-2.623c-0.182-1.009-0.549-1.977-1.1-2.896c-0.549-0.921-1.329-1.699-2.337-2.345
			c-1.009-0.642-2.36-0.963-4.055-0.963h-13.271V181.982z"/>
		<path d="M660.366,206.609h-9.66v-50.421h9.66V206.609z"/>
		<path d="M706.233,164.672h-14.417v41.938h-9.654v-41.938h-14.485v-8.556h38.557V164.672z"/>
		<path d="M723.892,206.609h-9.66v-50.421h9.66V206.609z"/>
		<path d="M759.894,207.572c-3.585,0-6.966-0.689-10.14-2.069c-3.172-1.378-5.94-3.255-8.311-5.62
			c-2.368-2.369-4.241-5.138-5.621-8.312c-1.378-3.172-2.069-6.575-2.069-10.208c0-3.586,0.691-6.978,2.069-10.171
			c1.38-3.201,3.253-5.981,5.621-8.351c2.37-2.369,5.139-4.241,8.311-5.618c3.174-1.382,6.555-2.069,10.14-2.069
			c3.631,0,7.034,0.688,10.211,2.069c3.172,1.377,5.94,3.249,8.311,5.618c2.367,2.369,4.24,5.149,5.621,8.351
			c1.378,3.193,2.069,6.585,2.069,10.171c0,3.633-0.691,7.036-2.069,10.208c-1.381,3.175-3.254,5.943-5.621,8.312
			c-2.37,2.365-5.139,4.242-8.311,5.62C766.929,206.883,763.525,207.572,759.894,207.572z M759.93,164.188
			c-2.294,0-4.442,0.471-6.438,1.416c-1.992,0.941-3.737,2.194-5.231,3.757c-1.49,1.566-2.672,3.393-3.544,5.483
			c-0.873,2.095-1.307,4.264-1.307,6.519c0,2.302,0.434,4.484,1.307,6.55c0.872,2.069,2.054,3.9,3.544,5.485
			c1.493,1.587,3.238,2.854,5.231,3.793c1.995,0.945,4.143,1.416,6.438,1.416c2.294,0,4.438-0.471,6.438-1.416
			c1.993-0.939,3.738-2.206,5.229-3.793c1.492-1.585,2.674-3.416,3.544-5.485c0.875-2.065,1.309-4.248,1.309-6.55
			c0-2.255-0.434-4.424-1.309-6.519c-0.87-2.091-2.052-3.917-3.544-5.483c-1.49-1.562-3.235-2.815-5.229-3.757
			C764.367,164.658,762.224,164.188,759.93,164.188z"/>
		<path d="M837.494,206.609l-33.181-30.007v30.007h-9.654v-50.421h1.035l33.173,30.482v-30.482h9.657v50.421H837.494z"/>
	</g>
	<g>
		<g>
			<path d="M137.062,43.604c9.678,0.001,21.107,1.219,33.971,3.62c70.925,13.262,120.351,56.493,120.351,87.001
				c0,22.423-26.919,68.548-89.146,73.556l-0.414,0.004c-1.138,0-2.546-0.373-3.424-2.118c-1.368-2.727,1.044-5.475,2.251-6.782
				c0.168-0.184,0.322-0.348,0.441-0.491c5.751-6.91,8.775-14.061,10.775-25.507c1.641-9.36,1.63-17.768-0.025-24.986
				c-1.659-7.161-4.43-13.513-8.236-18.878c-3.825-5.365-8.438-10.052-13.709-13.929c-5.215-3.828-10.678-7.162-16.238-9.91
				c-5.503-2.702-10.961-5.036-16.223-6.935c-5.552-1.993-8.762-3.229-12.255-4.727c-5.072-2.241-11.928-5.182-16.833-7.272
				c-5.476-2.334-10.201-4.735-14.441-7.34c-4.139-2.549-7.433-5.415-9.793-8.517c-2.146-2.831-2.924-6.037-2.312-9.531
				c0.635-3.624,2.345-6.314,4.924-8.585c2.709-2.383,4.312-3.186,5.948-4.049C117.199,45.839,122.421,43.601,137.062,43.604z"/>
		</g>
	</g>
</g>
<g>
</g>
<g>
</g>
<g>
</g>
<g>
</g>
<g>
</g>
<g>
</g>
</svg>
