<svg xmlns="http://www.w3.org/2000/svg" width="220" height="140" viewBox="0 0 220 140" fill="none">
  <rect width="220" height="140" fill="white"/>
  <path
    d="M68 10C35 10 10 35 10 68C10 98 29 116 64 126C86 132 103 141 103 154C103 168 91 178 72 178C57 178 42 173 28 164L18 156V131L35 143C47 151 61 156 76 156C93 156 102 149 102 137C102 125 88 116 63 108C30 97 10 81 10 48C10 18 34 -6 68 -6C84 -6 100 -1 112 8L120 14V39L102 25C92 17 80 12 68 10Z"
    fill="#6CC01B"
    transform="translate(-6 -4) scale(1.45)"
  />
</svg>
